<?xml version="1.0" encoding="UTF-8"?>
<svg id="_Шар_2" data-name="Шар 2" xmlns="http://www.w3.org/2000/svg" viewBox="0 0 162.03 88.36">
  <defs>
    <style>
      .cls-1 {
        fill: #fff;
      }
    </style>
  </defs>
  <g id="Layer_1" data-name="Layer 1">
    <g>
      <path class="cls-1" d="m129.95,1l-5.48-.48c-.89-.08-1.65.62-1.65,1.51v62.16l8.52.74V2.51c0-.79-.6-1.44-1.39-1.51Z"/>
      <path class="cls-1" d="m103.58,15.51c-3.14,0-5.85,1.03-8.11,3.08-2.23,2.08-3.35,4.57-3.35,7.45v61.58l8.52.75v-15.88c.98.87,2.57,1.31,4.77,1.31,6.34,0,9.57-3.24,9.68-9.7,0-.12,0-.24,0-.36V26.04c0-2.88-1.13-5.37-3.4-7.45-2.23-2.05-4.94-3.08-8.11-3.08Zm2.84,48.67c0,.69-.27,1.29-.81,1.82-.57.49-1.25.74-2.03.74s-1.44-.25-1.98-.74c-.57-.5-.86-1.1-.86-1.82V25.11c0-.71.29-1.32.86-1.81.54-.49,1.2-.74,1.98-.74s1.45.25,2.03.74c.54.5.81,1.1.81,1.81v39.08Z"/>
      <path class="cls-1" d="m162.03,47.95v-21.91c0-2.88-1.13-5.37-3.4-7.45-2.23-2.05-4.94-3.08-8.11-3.08s-5.85,1.03-8.11,3.08c-2.23,2.08-3.35,4.57-3.35,7.45v37.22c0,.93.12,1.81.35,2.66.48,1.79,1.48,3.38,3,4.8,2.27,2.05,4.97,3.08,8.11,3.08s5.89-1.03,8.11-3.08c1.06-.97,1.87-2.03,2.43-3.18.65-1.31.97-2.74.97-4.28v-10.84l-8.67-.76v12.7c0,.72-.27,1.32-.81,1.82-.56.48-1.22.73-1.97.74h-.06c-.2,0-.38-.02-.56-.05h-.01c-.54-.1-1.01-.33-1.4-.7-.58-.5-.86-1.1-.86-1.82v-17.66l14.35,1.25Zm-14.35-22.84c0-.71.28-1.32.86-1.81.54-.49,1.2-.74,1.97-.74s1.45.25,2.03.74c.54.5.81,1.1.81,1.81v13.11l-5.68-.49v-12.61Z"/>
      <path class="cls-1" d="m8.67,9.64c0-.74.27-1.37.81-1.86.54-.49,1.2-.74,1.98-.74s1.45.25,2.03.74c.54.5.81,1.12.81,1.86v18.53l8.67.75V10.53c0-2.88-1.13-5.35-3.4-7.4C17.34,1.04,14.64,0,11.46,0S5.61,1.04,3.35,3.12C1.11,5.17,0,7.64,0,10.53v29.83l14.3,1.25v22.58c0,.72-.27,1.32-.81,1.82-.57.49-1.25.74-2.03.74s-1.44-.25-1.98-.74c-.54-.5-.81-1.1-.81-1.82v-18.57l-8.67-.76v19.42c.27,2.67,1.5,4.92,3.7,6.75,2.2,1.83,4.78,2.75,7.76,2.75s5.61-.92,7.81-2.75c2.2-1.83,3.43-4.1,3.7-6.8v-30.84s-14.31-1.25-14.31-1.25V9.64Z"/>
      <path class="cls-1" d="m39.27,15.68c-.04-.15-.12-.29-.22-.4-.18-.22-.45-.36-.75-.39l-6.35-.61h-.1c-.28,0-.55.11-.76.3-.22.19-.28.46-.29.75v40.86l8.53.73V16.03c0-.12-.02-.23-.06-.34h0Z"/>
      <path class="cls-1" d="m84.41,32.15v-7.24h-.01v-2.17c-.02-.15-.1-.72-.18-.99-.06-.22-.13-.43-.21-.63-1.59-4.36-5.4-5.43-8.38-5.43-2.71,0-4.9.74-6.52,2.2-.18.16-.33.31-.48.46-.01,0-.02.01-.02.02-.18-.22-.36-.42-.55-.6-1.44-1.38-3.38-2.08-5.81-2.08-1.84,0-3.56.42-5.09,1.24-.01.01-.02.01-.03.02-.05.03-.16.08-.29.14-.01.01-.02.01-.03.02-.08-.13-.18-.24-.3-.34-.18-.14-.41-.24-.66-.26l-7.11-.67c-.89-.08-1.66.62-1.66,1.52v4.41l-.02,35.81,8.65.74v-28.63s-.01-4.06-.01-4.06h0c.05-.2.11-.42.2-.64.12-.3.3-.61.57-.88.43-.42,1.07-.74,2.04-.74,2.42,0,2.81,1.99,2.87,2.68v.05l-.02,32.69,8.7.75v-9.7h.03v-2.61s.01-.94.01-.94v-1.69s.02-.93.02-.93v-1.22h-.06v-2.11h.07s0-.99,0-.99v-2.62s.01-.94.01-.94v-1.68s.02-.94.02-.94v-.21h-.12v-6.02c0-.83,0-1.5.01-1.63.07-1.06,1.5-1.42,1.65-1.48l2.95.25c.96.6,1.1,1.23,1.1,1.69,0,.19-.02.35-.02.47l.02,2.66v.66l-.02,30.52,8.7.74-.03-26.59v-2.08Z"/>
      <path class="cls-1" d="m32.19,9.89l5.49.48c.89.08,1.65-.62,1.65-1.51V3.7c0-.79-.6-1.44-1.39-1.51l-5.5-.48c-.89-.08-1.65.62-1.65,1.51v5.16c0,.79.61,1.44,1.39,1.51Z"/>
    </g>
  </g>
</svg>